<svg class="animated" id="freepik_stories-snowman" xmlns="http://www.w3.org/2000/svg" xmlns:xlink="http://www.w3.org/1999/xlink" viewBox="0 0 500 500" version="1.1" xmlns:svgjs="http://svgjs.com/svgjs"><style>svg#freepik_stories-snowman:not(.animated) .animable {opacity: 0;}svg#freepik_stories-snowman.animated #el2mw50818e27 {animation: 3s 1 forwards cubic-bezier(.36,-0.01,.5,1.38) slideDown;animation-delay: 0s;}svg#freepik_stories-snowman.animated #ellso60gni64i {animation: 3s 1 forwards cubic-bezier(.36,-0.01,.5,1.38) slideDown;animation-delay: 0.04838709677419355s;opacity: 0}svg#freepik_stories-snowman.animated #elwr6nf0wm39k {animation: 3s 1 forwards cubic-bezier(.36,-0.01,.5,1.38) slideDown;animation-delay: 0.0967741935483871s;opacity: 0}svg#freepik_stories-snowman.animated #elkmk3s5x7q1 {animation: 3s 1 forwards cubic-bezier(.36,-0.01,.5,1.38) slideDown;animation-delay: 0.14516129032258063s;opacity: 0}svg#freepik_stories-snowman.animated #elxbegim7cd6q {animation: 3s 1 forwards cubic-bezier(.36,-0.01,.5,1.38) slideDown;animation-delay: 0.1935483870967742s;opacity: 0}svg#freepik_stories-snowman.animated #el0cu8nzb0se8 {animation: 3s 1 forwards cubic-bezier(.36,-0.01,.5,1.38) slideDown;animation-delay: 0.24193548387096775s;opacity: 0}svg#freepik_stories-snowman.animated #el7kjrd3vdezd {animation: 3s 1 forwards cubic-bezier(.36,-0.01,.5,1.38) slideDown;animation-delay: 0.29032258064516125s;opacity: 0}svg#freepik_stories-snowman.animated #el9f48sg1mje {animation: 3s 1 forwards cubic-bezier(.36,-0.01,.5,1.38) slideDown;animation-delay: 0.3387096774193548s;opacity: 0}svg#freepik_stories-snowman.animated #el5yasbjvtg77 {animation: 3s 1 forwards cubic-bezier(.36,-0.01,.5,1.38) slideDown;animation-delay: 0.3870967741935484s;opacity: 0}svg#freepik_stories-snowman.animated #eld4yms83jrge {animation: 3s 1 forwards cubic-bezier(.36,-0.01,.5,1.38) slideDown;animation-delay: 0.43548387096774194s;opacity: 0}svg#freepik_stories-snowman.animated #elq063zkseq5o {animation: 3s 1 forwards cubic-bezier(.36,-0.01,.5,1.38) slideDown;animation-delay: 0.4838709677419355s;opacity: 0}svg#freepik_stories-snowman.animated #elas58w8zxrd8 {animation: 3s 1 forwards cubic-bezier(.36,-0.01,.5,1.38) slideDown;animation-delay: 0.532258064516129s;opacity: 0}svg#freepik_stories-snowman.animated #el4447osv4l0v {animation: 3s 1 forwards cubic-bezier(.36,-0.01,.5,1.38) slideDown;animation-delay: 0.5806451612903225s;opacity: 0}svg#freepik_stories-snowman.animated #elvpqwv21q3ii {animation: 3s 1 forwards cubic-bezier(.36,-0.01,.5,1.38) slideDown;animation-delay: 0.6290322580645161s;opacity: 0}svg#freepik_stories-snowman.animated #eltngqzahf7e {animation: 3s 1 forwards cubic-bezier(.36,-0.01,.5,1.38) slideDown;animation-delay: 0.6774193548387096s;opacity: 0}svg#freepik_stories-snowman.animated #elu66e9y39wpr {animation: 3s 1 forwards cubic-bezier(.36,-0.01,.5,1.38) slideDown;animation-delay: 0.7258064516129032s;opacity: 0}svg#freepik_stories-snowman.animated #elltssclw05or {animation: 3s 1 forwards cubic-bezier(.36,-0.01,.5,1.38) slideDown;animation-delay: 0.7741935483870968s;opacity: 0}svg#freepik_stories-snowman.animated #elcx5hcdgzbuf {animation: 3s 1 forwards cubic-bezier(.36,-0.01,.5,1.38) slideDown;animation-delay: 0.8225806451612903s;opacity: 0}svg#freepik_stories-snowman.animated #elc8nhtzpa0oj {animation: 3s 1 forwards cubic-bezier(.36,-0.01,.5,1.38) slideDown;animation-delay: 0.8709677419354839s;opacity: 0}svg#freepik_stories-snowman.animated #elyh8p5in1igj {animation: 3s 1 forwards cubic-bezier(.36,-0.01,.5,1.38) slideDown;animation-delay: 0.9193548387096774s;opacity: 0}svg#freepik_stories-snowman.animated #elwit2nndh5ca {animation: 3s 1 forwards cubic-bezier(.36,-0.01,.5,1.38) slideDown;animation-delay: 0.967741935483871s;opacity: 0}svg#freepik_stories-snowman.animated #elzi2jdlv7s9 {animation: 3s 1 forwards cubic-bezier(.36,-0.01,.5,1.38) slideDown;animation-delay: 1.0161290322580645s;opacity: 0}svg#freepik_stories-snowman.animated #elajs2life8f6 {animation: 3s 1 forwards cubic-bezier(.36,-0.01,.5,1.38) slideDown;animation-delay: 1.064516129032258s;opacity: 0}svg#freepik_stories-snowman.animated #el9eyfurbm8s6 {animation: 3s 1 forwards cubic-bezier(.36,-0.01,.5,1.38) slideDown;animation-delay: 1.1129032258064515s;opacity: 0}svg#freepik_stories-snowman.animated #el56m7f29pquy {animation: 3s 1 forwards cubic-bezier(.36,-0.01,.5,1.38) slideDown;animation-delay: 1.161290322580645s;opacity: 0}svg#freepik_stories-snowman.animated #elxt9xueibr6f {animation: 3s 1 forwards cubic-bezier(.36,-0.01,.5,1.38) slideDown;animation-delay: 1.2096774193548387s;opacity: 0}svg#freepik_stories-snowman.animated #elb9pzk44set6 {animation: 3s 1 forwards cubic-bezier(.36,-0.01,.5,1.38) slideDown;animation-delay: 1.2580645161290323s;opacity: 0}svg#freepik_stories-snowman.animated #el8qzfcf0wth7 {animation: 3s 1 forwards cubic-bezier(.36,-0.01,.5,1.38) slideDown;animation-delay: 1.3064516129032258s;opacity: 0}svg#freepik_stories-snowman.animated #elqh4iz404fpo {animation: 3s 1 forwards cubic-bezier(.36,-0.01,.5,1.38) slideDown;animation-delay: 1.3548387096774193s;opacity: 0}svg#freepik_stories-snowman.animated #elpc5qddg93c {animation: 3s 1 forwards cubic-bezier(.36,-0.01,.5,1.38) slideDown;animation-delay: 1.4032258064516128s;opacity: 0}svg#freepik_stories-snowman.animated #elujdwrn24nld {animation: 3s 1 forwards cubic-bezier(.36,-0.01,.5,1.38) slideDown;animation-delay: 1.4516129032258065s;opacity: 0}svg#freepik_stories-snowman.animated #elsfiifhsdhra {animation: 3s 1 forwards cubic-bezier(.36,-0.01,.5,1.38) slideDown;animation-delay: 1.5s;opacity: 0}svg#freepik_stories-snowman.animated #elgbin2l8wqtc {animation: 3s 1 forwards cubic-bezier(.36,-0.01,.5,1.38) slideDown;animation-delay: 1.5483870967741935s;opacity: 0}svg#freepik_stories-snowman.animated #el8l12tj5lw0c {animation: 3s 1 forwards cubic-bezier(.36,-0.01,.5,1.38) slideDown;animation-delay: 1.596774193548387s;opacity: 0}svg#freepik_stories-snowman.animated #elia7ywdpy04t {animation: 3s 1 forwards cubic-bezier(.36,-0.01,.5,1.38) slideDown;animation-delay: 1.6451612903225805s;opacity: 0}svg#freepik_stories-snowman.animated #eljsupfrg88oa {animation: 3s 1 forwards cubic-bezier(.36,-0.01,.5,1.38) slideDown;animation-delay: 1.6935483870967742s;opacity: 0}svg#freepik_stories-snowman.animated #elvar7dg4tz3 {animation: 3s 1 forwards cubic-bezier(.36,-0.01,.5,1.38) slideDown;animation-delay: 1.7419354838709677s;opacity: 0}svg#freepik_stories-snowman.animated #elcmc74nieq67 {animation: 3s 1 forwards cubic-bezier(.36,-0.01,.5,1.38) slideDown;animation-delay: 1.7903225806451613s;opacity: 0}svg#freepik_stories-snowman.animated #elr29jkeginkm {animation: 3s 1 forwards cubic-bezier(.36,-0.01,.5,1.38) slideDown;animation-delay: 1.8387096774193548s;opacity: 0}svg#freepik_stories-snowman.animated #elr7912g3r0v {animation: 3s 1 forwards cubic-bezier(.36,-0.01,.5,1.38) slideDown;animation-delay: 1.8870967741935483s;opacity: 0}svg#freepik_stories-snowman.animated #elvec70sgrip9 {animation: 3s 1 forwards cubic-bezier(.36,-0.01,.5,1.38) slideDown;animation-delay: 1.935483870967742s;opacity: 0}svg#freepik_stories-snowman.animated #elkc3t1uf9xdm {animation: 3s 1 forwards cubic-bezier(.36,-0.01,.5,1.38) slideDown;animation-delay: 1.9838709677419355s;opacity: 0}svg#freepik_stories-snowman.animated #el6co84v00pfn {animation: 3s 1 forwards cubic-bezier(.36,-0.01,.5,1.38) slideDown;animation-delay: 2.032258064516129s;opacity: 0}svg#freepik_stories-snowman.animated #elb8vtmb43x18 {animation: 3s 1 forwards cubic-bezier(.36,-0.01,.5,1.38) slideDown;animation-delay: 2.0806451612903225s;opacity: 0}svg#freepik_stories-snowman.animated #elpy3sz99zaj {animation: 3s 1 forwards cubic-bezier(.36,-0.01,.5,1.38) slideDown;animation-delay: 2.129032258064516s;opacity: 0}svg#freepik_stories-snowman.animated #elyly3myab0zj {animation: 3s 1 forwards cubic-bezier(.36,-0.01,.5,1.38) slideDown;animation-delay: 2.1774193548387095s;opacity: 0}svg#freepik_stories-snowman.animated #elptkye2tspip {animation: 3s 1 forwards cubic-bezier(.36,-0.01,.5,1.38) slideDown;animation-delay: 2.225806451612903s;opacity: 0}svg#freepik_stories-snowman.animated #el2qbb68py9b2 {animation: 3s 1 forwards cubic-bezier(.36,-0.01,.5,1.38) slideDown;animation-delay: 2.2741935483870965s;opacity: 0}svg#freepik_stories-snowman.animated #elozffwk0h3jf {animation: 3s 1 forwards cubic-bezier(.36,-0.01,.5,1.38) slideDown;animation-delay: 2.32258064516129s;opacity: 0}svg#freepik_stories-snowman.animated #elpjq54j4mndj {animation: 3s 1 forwards cubic-bezier(.36,-0.01,.5,1.38) slideDown;animation-delay: 2.370967741935484s;opacity: 0}svg#freepik_stories-snowman.animated #ellz4oxpwmdr {animation: 3s 1 forwards cubic-bezier(.36,-0.01,.5,1.38) slideDown;animation-delay: 2.4193548387096775s;opacity: 0}svg#freepik_stories-snowman.animated #elh3kt2jl31sq {animation: 3s 1 forwards cubic-bezier(.36,-0.01,.5,1.38) slideDown;animation-delay: 2.467741935483871s;opacity: 0}svg#freepik_stories-snowman.animated #ela2c25u5yqus {animation: 3s 1 forwards cubic-bezier(.36,-0.01,.5,1.38) slideDown;animation-delay: 2.5161290322580645s;opacity: 0}svg#freepik_stories-snowman.animated #el2m0l9emrvvn {animation: 3s 1 forwards cubic-bezier(.36,-0.01,.5,1.38) slideDown;animation-delay: 2.564516129032258s;opacity: 0}svg#freepik_stories-snowman.animated #elkjelkcz9tnc {animation: 3s 1 forwards cubic-bezier(.36,-0.01,.5,1.38) slideDown;animation-delay: 2.6129032258064515s;opacity: 0}svg#freepik_stories-snowman.animated #elace43col4c {animation: 3s 1 forwards cubic-bezier(.36,-0.01,.5,1.38) slideDown;animation-delay: 2.661290322580645s;opacity: 0}svg#freepik_stories-snowman.animated #elnlv15xbecdb {animation: 3s 1 forwards cubic-bezier(.36,-0.01,.5,1.38) slideDown;animation-delay: 2.7096774193548385s;opacity: 0}svg#freepik_stories-snowman.animated #elyzvx89w7kxq {animation: 3s 1 forwards cubic-bezier(.36,-0.01,.5,1.38) slideDown;animation-delay: 2.758064516129032s;opacity: 0}svg#freepik_stories-snowman.animated #el9y7g7yyakb {animation: 3s 1 forwards cubic-bezier(.36,-0.01,.5,1.38) slideDown;animation-delay: 2.8064516129032255s;opacity: 0}svg#freepik_stories-snowman.animated #ely7ounnnl0z {animation: 3s 1 forwards cubic-bezier(.36,-0.01,.5,1.38) slideDown;animation-delay: 2.8548387096774195s;opacity: 0}svg#freepik_stories-snowman.animated #el6h07nlsi9k8 {animation: 3s 1 forwards cubic-bezier(.36,-0.01,.5,1.38) slideDown;animation-delay: 2.903225806451613s;opacity: 0}svg#freepik_stories-snowman.animated #elsgjds0i8l {animation: 3s 1 forwards cubic-bezier(.36,-0.01,.5,1.38) slideDown;animation-delay: 2.9516129032258065s;opacity: 0}svg#freepik_stories-snowman.animated #freepik--Character--inject-1--inject-92 {animation: 3s 1 forwards cubic-bezier(.36,-0.01,.5,1.38) slideDown;animation-delay: 0s;}svg#freepik_stories-snowman.animated #freepik--Snow--inject-1--inject-92 {animation: 6.0s 1 forwards cubic-bezier(.36,-0.01,.5,1.38) slideDown;animation-delay: 0s;}            @keyframes slideDown {                0% {                    opacity: 0;                    transform: translateY(-30px);                }                100% {                    opacity: 1;                    transform: translateY(0);                }            }        </style><!--Snowman--><g id="freepik--background-simple--inject-1--inject-92" class="animable" style="transform-origin: 253.253px 252.014px;"><path d="M445.76,281.67c2.79-41.44-19.42-74-54-84-20.39-5.92-41.7-12.45-54.53-32.7-11.61-18.33-19.47-39.72-33.42-56.16-22.29-26.28-60.94-26.7-89.08-13-25.53,12.38-49.81,38.56-47.62,71.68,1.7,25.73,14.41,46.71-12.27,61.6-37.74,21.07-33.81-7-70.76,31.6s-23.58,86-6.29,121.12c11,22.38,8.64,30.49,5.45,33.43,3.47-.55,7.69-1.35,12.44-2.47.21-5.15,7.85-15.89,10.52-18.56,3.27-3.28-8.9,6.08-11.7-2.81s6.08-19.66,7.48-22.47-4.21-1.4-8-5.14,1.87-8.9,2.34-13.11,0-3.27-5.62-9.36,4.21-29.95,5.15-37-4.68,3.74-7-2.81,10.3-21.06,10.3-21.06-2.81-2.81,0-9.36,9.36-10.3,11.7-6.56-2.34,8-2.34,8,6.08,6.08,6.55,13.11-.47,6.08,2.81,8.89,15.44,10.76,15.44,17.78-7.49,1.41-7.49,2.81,19.66,21.53,19.19,32.3-9.36,3.74-8.89,7,17.79,10.76,19.19,22-11.23,3.28-11.7,5.15c-.37,1.48,10.69,7.1,15.09,11.21a16.16,16.16,0,0,1,4-1.32c6.89-1.3,9.88-1,9.88-1s2.61-11.92,19-13.65,76.72-3.44,76.72-3.44l36.63-.44s31,3.88,38.36,8.19S352,394.16,360.74,394c2.65-4,6.19-8.72,6.19-8.72s-7.49,5.14-8.89,1.4,9.36-17.32,9.36-17.32-5.62,1.41-5.15-4.21,12.17-14.51,12.17-14.51a16.18,16.18,0,0,1-6.55-5.15c-2.81-3.74.93-5.15,4.21-8.42s3.27-13.11,3.27-13.11-4.21,2.34-4.21-3.27,14.51-15,14.51-16.38-6.08,1.4-3.28-4.22S395,289.29,395,289.29c7-4.68,11.7,1.4,11.7,7.49s-4.21.47-6.08,1.87,1.87,14,1.87,14-3.74-.94-5.15-.47,8,17.79,7.49,25.28-4.21.93-5.15,2.34,1.87,7.49,2.81,14-5.15,6.55-5.15,6.55,7.49,25.27,7.49,27.61-7.49-2.8-7.49-2.8a148.06,148.06,0,0,1,3,14.54c5,.36,10.16,1.34,13.31,8,3.83,8.09,12.27,8.19,17.05,9.44,2.6-2.71,3.55-7.73,2.51-17-2.36-21.07-33-49.16-17.3-65.83S443.4,316.78,445.76,281.67Z" style="fill: #90CAF9; transform-origin: 253.253px 252.014px;" id="el6mp9eqtph1p" class="animable"></path><g id="els4meorm9krq"><path d="M445.76,281.67c2.79-41.44-19.42-74-54-84-20.39-5.92-41.7-12.45-54.53-32.7-11.61-18.33-19.47-39.72-33.42-56.16-22.29-26.28-60.94-26.7-89.08-13-25.53,12.38-49.81,38.56-47.62,71.68,1.7,25.73,14.41,46.71-12.27,61.6-37.74,21.07-33.81-7-70.76,31.6s-23.58,86-6.29,121.12c11,22.38,8.64,30.49,5.45,33.43,3.47-.55,7.69-1.35,12.44-2.47.21-5.15,7.85-15.89,10.52-18.56,3.27-3.28-8.9,6.08-11.7-2.81s6.08-19.66,7.48-22.47-4.21-1.4-8-5.14,1.87-8.9,2.34-13.11,0-3.27-5.62-9.36,4.21-29.95,5.15-37-4.68,3.74-7-2.81,10.3-21.06,10.3-21.06-2.81-2.81,0-9.36,9.36-10.3,11.7-6.56-2.34,8-2.34,8,6.08,6.08,6.55,13.11-.47,6.08,2.81,8.89,15.44,10.76,15.44,17.78-7.49,1.41-7.49,2.81,19.66,21.53,19.19,32.3-9.36,3.74-8.89,7,17.79,10.76,19.19,22-11.23,3.28-11.7,5.15c-.37,1.48,10.69,7.1,15.09,11.21a16.16,16.16,0,0,1,4-1.32c6.89-1.3,9.88-1,9.88-1s2.61-11.92,19-13.65,76.72-3.44,76.72-3.44l36.63-.44s31,3.88,38.36,8.19S352,394.16,360.74,394c2.65-4,6.19-8.72,6.19-8.72s-7.49,5.14-8.89,1.4,9.36-17.32,9.36-17.32-5.62,1.41-5.15-4.21,12.17-14.51,12.17-14.51a16.18,16.18,0,0,1-6.55-5.15c-2.81-3.74.93-5.15,4.21-8.42s3.27-13.11,3.27-13.11-4.21,2.34-4.21-3.27,14.51-15,14.51-16.38-6.08,1.4-3.28-4.22S395,289.29,395,289.29c7-4.68,11.7,1.4,11.7,7.49s-4.21.47-6.08,1.87,1.87,14,1.87,14-3.74-.94-5.15-.47,8,17.79,7.49,25.28-4.21.93-5.15,2.34,1.87,7.49,2.81,14-5.15,6.55-5.15,6.55,7.49,25.27,7.49,27.61-7.49-2.8-7.49-2.8a148.06,148.06,0,0,1,3,14.54c5,.36,10.16,1.34,13.31,8,3.83,8.09,12.27,8.19,17.05,9.44,2.6-2.71,3.55-7.73,2.51-17-2.36-21.07-33-49.16-17.3-65.83S443.4,316.78,445.76,281.67Z" style="fill: rgb(255, 255, 255); opacity: 0.6; transform-origin: 253.253px 252.014px;" class="animable" id="el72ev3apwfz3"></path></g></g><g id="freepik--Ground--inject-1--inject-92" class="animable" style="transform-origin: 267.66px 396.211px;"><path d="M304.41,397.1s-49-3.71-37.85,4.46,40.08-5.2,39.34.74-12.62,4.45-.74,5.93,25.23-1.48,29.68.75,7.48,7.39,13,6.29,13.7-2.58,22.61-1.84,15.58,0,4.45-5.94-21.52-3-29.68-7.41c-5.92-3.23-9.27-12.88-16.19-14.59C319.49,383.12,314.76,397.1,304.41,397.1Z" style="fill: #90CAF9; transform-origin: 322.821px 400.321px;" id="elw0c1ej4kf9q" class="animable"></path><g id="elnvl66p9e0ha"><path d="M304.41,397.1s-49-3.71-37.85,4.46,40.08-5.2,39.34.74-12.62,4.45-.74,5.93,25.23-1.48,29.68.75,7.48,7.39,13,6.29,13.7-2.58,22.61-1.84,15.58,0,4.45-5.94-21.52-3-29.68-7.41c-5.92-3.23-9.27-12.88-16.19-14.59C319.49,383.12,314.76,397.1,304.41,397.1Z" style="fill: rgb(255, 255, 255); opacity: 0.6; transform-origin: 322.821px 400.321px;" class="animable" id="eli8p0dvgdrh8"></path></g><path d="M135.19,398.75c-3.68.77-8.54,1.85-8.54,1.85" style="fill: none; stroke: rgb(38, 50, 56); stroke-linecap: round; stroke-linejoin: round; transform-origin: 130.92px 399.675px;" id="el8yfwm4dlcp9" class="animable"></path><path d="M186,377a15.66,15.66,0,0,0-3.13,1c-9.5,4.38-10.23,12.42-10.23,12.42A50.63,50.63,0,0,0,161,391.83c-5.11,1.46-6.57,3.65-9.5,5.11-2.39,1.2-8.21.93-12.25,1.19" style="fill: none; stroke: rgb(38, 50, 56); stroke-linecap: round; stroke-linejoin: round; transform-origin: 162.625px 387.565px;" id="eljt2rcfdgsx" class="animable"></path><path d="M400.11,399.82c1.55.05,3,.05,4.18.05a5.47,5.47,0,0,1,4.38,2.19" style="fill: none; stroke: rgb(38, 50, 56); stroke-linecap: round; stroke-linejoin: round; transform-origin: 404.39px 400.94px;" id="elqsih9mjp7d" class="animable"></path><path d="M352.62,391.76a6.88,6.88,0,0,0,4.91,2.26c7.31.73,15.34-8,23.38-2.92s9.5,7.31,12.42,8c.46.11,1,.21,1.52.29" style="fill: none; stroke: rgb(38, 50, 56); stroke-linecap: round; stroke-linejoin: round; transform-origin: 373.735px 394.447px;" id="el0poqzos3o78d" class="animable"></path><path d="M328,378.41a26.43,26.43,0,0,1,16.39,3.92,18.12,18.12,0,0,1,5.88,5.93" style="fill: none; stroke: rgb(38, 50, 56); stroke-linecap: round; stroke-linejoin: round; transform-origin: 339.135px 383.282px;" id="elnhf01gxbu7j" class="animable"></path></g><g id="freepik--Character--inject-1--inject-92" class="animable animator-active" style="transform-origin: 244.086px 251.565px;"><path d="M287.39,384.52c14.61,2.93,20.46,10.23,20.46,10.23a9.13,9.13,0,0,1,1.23-.59c25.86-15.9,43-43.54,43-75,0-49.32-42.07-89.29-94-89.29s-94,40-94,89.29c0,38.22,25.28,70.82,60.81,83.56l2.3.1a31.67,31.67,0,0,0,11.17-5.89C253.05,385.25,272.78,381.6,287.39,384.52Z" style="fill: rgb(255, 255, 255); transform-origin: 258.08px 316.345px;" id="el2mw50818e27" class="animable"></path><g style="clip-path: url(&quot;#freepik--clip-path--inject-1--inject-92&quot;); transform-origin: 289.615px 315.715px;" id="ellso60gni64i" class="animable"><g id="elo23b7vn3k5"><path d="M258.63,229.89,227.15,245.2s9.54,10.31,28.29,12.19,23.12-3.75,23.12-3.75,8.12,20.62,28.12,27.49,29.6,5.71,37.49,21.87-1.25,27.5-1.25,27.5,3.75,5,1.25,9.37-1.25,6.87-6.87,6.87-11.88-3.12-11.88-3.12a20.92,20.92,0,0,0,7.5,6.25,27.27,27.27,0,0,0,9.38,1.87s-2.5,7.5-14.38,17.5-18.74,12.49-31.86,12.49-25-7.49-43.74,3.75c-11.11,6.67-17.83,12.45-21.46,16.06a33.12,33.12,0,0,0,7.58-4.6c14.61-11.69,34.34-15.34,48.95-12.42s20.46,10.23,20.46,10.23a9.13,9.13,0,0,1,1.23-.59c25.86-15.9,43-43.54,43-75C352.07,270,310.28,230.16,258.63,229.89Z" style="fill: #90CAF9; opacity: 0.5; mix-blend-mode: multiply; transform-origin: 289.615px 315.715px;" class="animable" id="elc383k6bctdo"></path></g></g><path d="M287.39,384.52c14.61,2.93,20.46,10.23,20.46,10.23a9.13,9.13,0,0,1,1.23-.59c25.86-15.9,43-43.54,43-75,0-49.32-42.07-89.29-94-89.29s-94,40-94,89.29c0,38.22,25.28,70.82,60.81,83.56l2.3.1a31.67,31.67,0,0,0,11.17-5.89C253.05,385.25,272.78,381.6,287.39,384.52Z" style="fill: none; stroke: rgb(38, 50, 56); stroke-linecap: round; stroke-linejoin: round; transform-origin: 258.08px 316.345px;" id="elwr6nf0wm39k" class="animable"></path><ellipse cx="293.31" cy="279.46" rx="10.44" ry="9.81" style="fill: rgb(38, 50, 56); stroke: rgb(38, 50, 56); stroke-linecap: round; stroke-linejoin: round; transform-origin: 293.31px 279.46px;" id="elkmk3s5x7q1" class="animable"></ellipse><ellipse cx="301.54" cy="326.93" rx="10.44" ry="9.81" style="fill: rgb(38, 50, 56); stroke: rgb(38, 50, 56); stroke-linecap: round; stroke-linejoin: round; transform-origin: 301.54px 326.93px;" id="elxbegim7cd6q" class="animable"></ellipse><path d="M177.83,293.81A25.25,25.25,0,0,0,183.6,312" style="fill: none; stroke: rgb(38, 50, 56); stroke-linecap: round; stroke-linejoin: round; transform-origin: 180.674px 302.905px;" id="el0cu8nzb0se8" class="animable"></path><path d="M186.71,315.1s3.1,3.55,6.65,4.44" style="fill: none; stroke: rgb(38, 50, 56); stroke-linecap: round; stroke-linejoin: round; transform-origin: 190.035px 317.32px;" id="el7kjrd3vdezd" class="animable"></path><path d="M178.72,321.76s3.55,9.32,15.53,13.76" style="fill: none; stroke: rgb(38, 50, 56); stroke-linecap: round; stroke-linejoin: round; transform-origin: 186.485px 328.64px;" id="el9f48sg1mje" class="animable"></path><path d="M176.5,308s3.55,10.2,11.54,15.08" style="fill: none; stroke: rgb(38, 50, 56); stroke-linecap: round; stroke-linejoin: round; transform-origin: 182.27px 315.54px;" id="el5yasbjvtg77" class="animable"></path><path d="M182.71,335.07a29.27,29.27,0,0,0,11.54,5.77" style="fill: none; stroke: rgb(38, 50, 56); stroke-linecap: round; stroke-linejoin: round; transform-origin: 188.48px 337.955px;" id="eld4yms83jrge" class="animable"></path><path d="M190.26,359.92s4.88,7.1,21.74,10.21" style="fill: none; stroke: rgb(38, 50, 56); stroke-linecap: round; stroke-linejoin: round; transform-origin: 201.13px 365.025px;" id="elq063zkseq5o" class="animable"></path><path d="M205.79,372.79a20.27,20.27,0,0,0,8.87,2.22" style="fill: none; stroke: rgb(38, 50, 56); stroke-linecap: round; stroke-linejoin: round; transform-origin: 210.225px 373.9px;" id="elas58w8zxrd8" class="animable"></path><path d="M310.72,262.06l53.8-59.5s2.6-31.3,6.4-31.3,5,.92,4.36,6S370.61,198,370.61,198s10.36-10,16.06-18.19,10.76-20.89,15.82-20.89,4.44,5.07.64,10.76-41.78,44.94-39.25,46.21,28.49-19,29.12-13.93S350.59,230.41,342.36,238s-28.48,31-28.48,31Z" style="fill: #90CAF9; stroke: rgb(38, 50, 56); stroke-linecap: round; stroke-linejoin: round; transform-origin: 358.426px 213.96px;" id="el4447osv4l0v" class="animable"></path><g id="elvpqwv21q3ii" class=""><path d="M310.72,262.06l53.8-59.5s2.6-31.3,6.4-31.3,5,.92,4.36,6S370.61,198,370.61,198s10.36-10,16.06-18.19,10.76-20.89,15.82-20.89,4.44,5.07.64,10.76-41.78,44.94-39.25,46.21,28.49-19,29.12-13.93S350.59,230.41,342.36,238s-28.48,31-28.48,31Z" style="opacity: 0.5; transform-origin: 358.426px 213.96px;" class="animable" id="elnbezoqzuqcm"></path></g><line x1="405.69" y1="161.95" x2="400.1" y2="169.09" style="fill: none; stroke: rgb(38, 50, 56); stroke-linecap: round; stroke-linejoin: round; transform-origin: 402.895px 165.52px;" id="eltngqzahf7e" class="animable"></line><line x1="398.24" y1="170.64" x2="395.45" y2="174.37" style="fill: none; stroke: rgb(38, 50, 56); stroke-linecap: round; stroke-linejoin: round; transform-origin: 396.845px 172.505px;" id="elu66e9y39wpr" class="animable"></line><line x1="357.26" y1="220.63" x2="352.29" y2="225.6" style="fill: none; stroke: rgb(38, 50, 56); stroke-linecap: round; stroke-linejoin: round; transform-origin: 354.775px 223.115px;" id="elltssclw05or" class="animable"></line><line x1="152.35" y1="238.33" x2="168.49" y2="248.88" style="fill: none; stroke: rgb(38, 50, 56); stroke-linecap: round; stroke-linejoin: round; transform-origin: 160.42px 243.605px;" id="elcx5hcdgzbuf" class="animable"></line><line x1="170.66" y1="250.12" x2="175.63" y2="253.54" style="fill: none; stroke: rgb(38, 50, 56); stroke-linecap: round; stroke-linejoin: round; transform-origin: 173.145px 251.83px;" id="elc8nhtzpa0oj" class="animable"></line><path d="M201.22,262.06,164.5,239.27c-18.35-11.39-31-20.26-31-20.26l-5.06-36.71a26.34,26.34,0,0,0-5.7-.63c-3.17,0-3.8,4.43-3.8,4.43s-1.26-.63,2.53,7.6S125.89,214,125.89,214,112,200.66,102.47,193.7s-10.76-11.4-15.82-12-5.7,8.23-3.16,10.76,48.73,34.81,51.9,36.71-18.36-3.8-22.79-5.06-7-.63-5.06,3.16,37.34,9.5,37.34,9.5L194.25,269S200,272.18,201.22,262.06Z" style="fill: #90CAF9; stroke: rgb(38, 50, 56); stroke-linecap: round; stroke-linejoin: round; transform-origin: 141.63px 225.572px;" id="elyh8p5in1igj" class="animable"></path><g id="elwit2nndh5ca" class=""><path d="M201.22,262.06,164.5,239.27c-18.35-11.39-31-20.26-31-20.26l-5.06-36.71a26.34,26.34,0,0,0-5.7-.63c-3.17,0-3.8,4.43-3.8,4.43s-1.26-.63,2.53,7.6S125.89,214,125.89,214,112,200.66,102.47,193.7s-10.76-11.4-15.82-12-5.7,8.23-3.16,10.76,48.73,34.81,51.9,36.71-18.36-3.8-22.79-5.06-7-.63-5.06,3.16,37.34,9.5,37.34,9.5L194.25,269S200,272.18,201.22,262.06Z" style="opacity: 0.5; transform-origin: 141.63px 225.572px;" class="animable" id="el6093vghwfwd"></path></g><path d="M86.65,181.67s2,.15,2,4.81-1.42,7.87-5.21,6" style="fill: none; stroke: rgb(38, 50, 56); stroke-linecap: round; stroke-linejoin: round; transform-origin: 86.045px 187.346px;" id="elzi2jdlv7s9" class="animable"></path><line x1="89.01" y1="193.62" x2="95.84" y2="199.21" style="fill: none; stroke: rgb(38, 50, 56); stroke-linecap: round; stroke-linejoin: round; transform-origin: 92.425px 196.415px;" id="elajs2life8f6" class="animable"></line><line x1="88.39" y1="188.65" x2="92.73" y2="192.38" style="fill: none; stroke: rgb(38, 50, 56); stroke-linecap: round; stroke-linejoin: round; transform-origin: 90.56px 190.515px;" id="el9eyfurbm8s6" class="animable"></line><path d="M207.47,172.09s-1.12-11.35-7.74-19.3a47,47,0,0,0-13.86-11.47s7.79-27.31,41.58-36.81c25.69-7.22,36-2.94,36-2.94s-1.5,26.44,9.12,42.49C272.56,144.06,248.28,142,207.47,172.09Z" style="fill: rgb(38, 50, 56); stroke: rgb(38, 50, 56); stroke-linecap: round; stroke-linejoin: round; transform-origin: 229.22px 136.2px;" id="el56m7f29pquy" class="animable"></path><path d="M195.35,145.48a38.75,38.75,0,0,1,11.9-14.64" style="fill: none; stroke: rgb(255, 255, 255); stroke-linecap: round; stroke-linejoin: round; transform-origin: 201.3px 138.16px;" id="elxt9xueibr6f" class="animable"></path><path d="M210,129s4.11-2.29,7.32-3.66" style="fill: none; stroke: rgb(255, 255, 255); stroke-linecap: round; stroke-linejoin: round; transform-origin: 213.66px 127.17px;" id="elb9pzk44set6" class="animable"></path><path d="M201.3,148.68s5.49-9.15,12.81-13.27" style="fill: none; stroke: rgb(255, 255, 255); stroke-linecap: round; stroke-linejoin: round; transform-origin: 207.705px 142.045px;" id="el8qzfcf0wth7" class="animable"></path><path d="M262.16,123.06a34.31,34.31,0,0,0-15.56-.46" style="fill: none; stroke: rgb(255, 255, 255); stroke-linecap: round; stroke-linejoin: round; transform-origin: 254.38px 122.49px;" id="elqh4iz404fpo" class="animable"></path><path d="M236.66,131c-15.29,4.66-27.25,14.54-33.82,26.41a43.36,43.36,0,0,1,4.63,14.67c40.81-30.09,65.09-28,65.09-28a49.77,49.77,0,0,1-6.22-14.56A60.14,60.14,0,0,0,236.66,131Z" style="fill: #90CAF9; stroke: rgb(38, 50, 56); stroke-linecap: round; stroke-linejoin: round; transform-origin: 237.7px 150.202px;" id="elpc5qddg93c" class="animable"></path><g id="elujdwrn24nld" class=""><ellipse cx="248.72" cy="172.68" rx="63.79" ry="29.38" style="fill: rgb(38, 50, 56); stroke: rgb(38, 50, 56); stroke-linecap: round; stroke-linejoin: round; transform-origin: 248.72px 172.68px; transform: rotate(-23.46deg);" class="animable" id="el06l6jhtd3cth"></ellipse></g><g id="elsfiifhsdhra" class=""><ellipse cx="249.64" cy="175.88" rx="63.79" ry="29.38" style="fill: rgb(38, 50, 56); stroke: rgb(38, 50, 56); stroke-linecap: round; stroke-linejoin: round; transform-origin: 249.64px 175.88px; transform: rotate(-23.46deg);" class="animable" id="el83ctp4ru0ck"></ellipse></g><path d="M197.5,177.75c8.21-10.46,22.59-21.07,40.44-28.82,25.46-11.05,50.37-13,62.95-6" style="fill: none; stroke: rgb(255, 255, 255); stroke-linecap: round; stroke-linejoin: round; transform-origin: 249.195px 158.291px;" id="elgbin2l8wqtc" class="animable"></path><path d="M191,189.19a34.09,34.09,0,0,1,4-8" style="fill: none; stroke: rgb(255, 255, 255); stroke-linecap: round; stroke-linejoin: round; transform-origin: 193px 185.19px;" id="el8l12tj5lw0c" class="animable"></path><path d="M223.3,221.22a6,6,0,0,0-2.19,5.69c.44,3.93,2.19,4.37.88,7.44s-3.07,4.81.43,7.43,11.82,10.07,30.2,10.07,29.32-3.5,36.76-9.63,3.94-8.31,3.94-12.25,3.5-6.13-.88-10.94S279.75,233,223.3,221.22Z" style="fill: #90CAF9; stroke: rgb(38, 50, 56); stroke-linecap: round; stroke-linejoin: round; transform-origin: 257.506px 235.037px;" id="elia7ywdpy04t" class="animable"></path><g id="eljsupfrg88oa" class=""><path d="M223.3,221.22a6,6,0,0,0-2.19,5.69c.44,3.93,2.19,4.37.88,7.44s-3.07,4.81.43,7.43,11.82,10.07,30.2,10.07,29.32-3.5,36.76-9.63,3.94-8.31,3.94-12.25,3.5-6.13-.88-10.94S279.75,233,223.3,221.22Z" style="opacity: 0.3; transform-origin: 257.506px 235.037px;" class="animable" id="elf7ngzgbuv1"></path></g><path d="M276.56,248.9a36.8,36.8,0,0,0,12.82-6.68c.22-.18.43-.35.63-.53-.79-5.63-2.59-12.59-5.63-17.9-.59-1-1.12-1.95-1.63-2.77-7,2.62-19,5.78-41.31,3.2l-8.32,2.36s-4.66,4.2-4.66,7.93v5.12l-1.31,5.57a40.29,40.29,0,0,0,11.71,5l.32-7.32s0-8.85,3.72-10.25,11.19,1.87,11.19,1.87l-.74,17.33a101.25,101.25,0,0,0,14.88-1.06c.47-4.2.82-10.78-.62-16.27l-2.33-8.86,9.78-1.4s2.8,8.39,2.33,15.85C277.17,243.67,276.84,246.7,276.56,248.9Z" style="fill: rgb(38, 50, 56); stroke: rgb(38, 50, 56); stroke-linecap: round; stroke-linejoin: round; transform-origin: 258.58px 236.425px;" id="elvar7dg4tz3" class="animable"></path><path d="M296.82,240.91s13.13,12.69,33.26,1.31,23.19-18.82,34.13-20.13a110.49,110.49,0,0,1,20.57-.44l-2.19,21s-7-3.5-28,3.94-31.5,12.69-44.63,8.75S296.82,240.91,296.82,240.91Z" style="fill: #90CAF9; stroke: rgb(38, 50, 56); stroke-linecap: round; stroke-linejoin: round; transform-origin: 340.8px 239.025px;" id="elcmc74nieq67" class="animable"></path><g id="elr29jkeginkm" class=""><path d="M296.82,240.91s13.13,12.69,33.26,1.31,23.19-18.82,34.13-20.13a110.49,110.49,0,0,1,20.57-.44l-2.19,21s-7-3.5-28,3.94-31.5,12.69-44.63,8.75S296.82,240.91,296.82,240.91Z" style="opacity: 0.4; transform-origin: 340.8px 239.025px;" class="animable" id="el778mf1m3q8r"></path></g><path d="M369.91,221.58,366,243.24c12.22-2.76,16.6-.58,16.6-.58l2.19-21A110.35,110.35,0,0,0,369.91,221.58Z" style="fill: rgb(38, 50, 56); stroke: rgb(38, 50, 56); stroke-linecap: round; stroke-linejoin: round; transform-origin: 375.395px 232.304px;" id="elr7912g3r0v" class="animable"></path><path d="M329.8,255.11c5.4-1.42,11.44-3.68,18.86-6.38l5.63-22.93c-4.78,3.06-9.93,7.81-19.86,13.87Z" style="fill: rgb(38, 50, 56); stroke: rgb(38, 50, 56); stroke-linecap: round; stroke-linejoin: round; transform-origin: 342.045px 240.455px;" id="elvec70sgrip9" class="animable"></path><path d="M264.87,235.66S276.25,233,279.75,240s8.32,18.82,26.7,28,40.26,4.38,56,1.31,25.82,0,25.82,0l2.19-26.25s-14.88-10.94-31.07-4.38-37.64,13.57-50.77,7.88-15.31-21-23.19-20.57C285.44,226,267.06,232.59,264.87,235.66Z" style="fill: #90CAF9; stroke: rgb(38, 50, 56); stroke-linecap: round; stroke-linejoin: round; transform-origin: 327.665px 249.659px;" id="elkc3t1uf9xdm" class="animable"></path><g id="el6co84v00pfn" class=""><path d="M264.87,235.66S276.25,233,279.75,240s8.32,18.82,26.7,28,40.26,4.38,56,1.31,25.82,0,25.82,0l2.19-26.25s-14.88-10.94-31.07-4.38-37.64,13.57-50.77,7.88-15.31-21-23.19-20.57C285.44,226,267.06,232.59,264.87,235.66Z" style="opacity: 0.3; transform-origin: 327.665px 249.659px;" class="animable" id="elpdpye8yu31"></path></g><path d="M292.27,230.19l-14.89,7.06a7.53,7.53,0,0,1,2.37,2.78c1.13,2.27,2.4,5,4.22,8.05l14.72-9.26C296.16,235.79,294.2,232.62,292.27,230.19Z" style="fill: rgb(38, 50, 56); stroke: rgb(38, 50, 56); stroke-linecap: round; stroke-linejoin: round; transform-origin: 288.035px 239.135px;" id="elb8vtmb43x18" class="animable"></path><path d="M316.83,271.77l10.53-23.58A42.39,42.39,0,0,1,312.9,248l-12.69,16.57a70.13,70.13,0,0,0,6.24,3.52A47.79,47.79,0,0,0,316.83,271.77Z" style="fill: rgb(38, 50, 56); stroke: rgb(38, 50, 56); stroke-linecap: round; stroke-linejoin: round; transform-origin: 313.785px 259.885px;" id="elpy3sz99zaj" class="animable"></path><path d="M367.48,268.56,371,236.64a28.5,28.5,0,0,0-11.6,2.08c-2.13.86-4.35,1.73-6.63,2.58L347.89,272c5.2-.79,10.13-1.79,14.57-2.66C364.21,269,365.88,268.76,367.48,268.56Z" style="fill: rgb(38, 50, 56); stroke: rgb(38, 50, 56); stroke-linecap: round; stroke-linejoin: round; transform-origin: 359.445px 254.313px;" id="elyly3myab0zj" class="animable"></path><path d="M299.87,192.65a44.44,44.44,0,0,1-44.44,44.43c-24.53,0-43.17-15.06-43.17-39.6s23.91-41.89,48.45-41.89S299.87,168.11,299.87,192.65Z" style="fill: rgb(255, 255, 255); transform-origin: 256.065px 196.335px;" id="elptkye2tspip" class="animable"></path><g style="clip-path: url(&quot;#freepik--clip-path-2--inject-1--inject-92&quot;); transform-origin: 256.045px 196.334px;" id="el2qbb68py9b2" class="animable"><g id="elxxwer47cjq"><path d="M260.71,155.59c-24.54,0-48.45,17.35-48.45,41.89a43.79,43.79,0,0,0,1,9.2c5.32-7.43,17.8-20.16,43.48-26.15a74.65,74.65,0,0,1,42.38,2.84C295.73,165,281.94,155.59,260.71,155.59Z" style="fill: #90CAF9; opacity: 0.5; mix-blend-mode: multiply; transform-origin: 255.69px 181.135px;" class="animable" id="elwotbgx1cd2"></path></g><g id="elnx0ifb6erc8"><path d="M294.83,213.19a44.25,44.25,0,0,0,5-20.54c0-8-1.56-14.68-4.49-20.1a126.92,126.92,0,0,1-2.46,26.07,27.11,27.11,0,0,0-6.11-8.83c-4.61-4.37-13.84-4.61-15.54,1,0,0,1.21,7.53,5.59,9.71a31.86,31.86,0,0,0,9.95,2.67,13.46,13.46,0,0,0,2.68,3.89c.33.28.59.49.82.67-5.56,15.1-15.32,21.69-27.31,25-11.82,3.28-24.52.53-32.8-2.2a48.6,48.6,0,0,0,25.23,6.54,44.43,44.43,0,0,0,39.4-23.89Z" style="fill: #90CAF9; opacity: 0.5; mix-blend-mode: multiply; transform-origin: 264.995px 204.814px;" class="animable" id="elqn1iu2uggrj"></path></g></g><path d="M299.87,192.65a44.44,44.44,0,0,1-44.44,44.43c-24.53,0-43.17-15.06-43.17-39.6s23.91-41.89,48.45-41.89S299.87,168.11,299.87,192.65Z" style="fill: none; stroke: rgb(38, 50, 56); stroke-linecap: round; stroke-linejoin: round; transform-origin: 256.065px 196.335px;" id="elozffwk0h3jf" class="animable"></path><path d="M267.63,175c.92,2.39.76,4.68-.34,5.1s-2.76-1.16-3.68-3.56-.76-4.68.34-5.1S266.7,172.59,267.63,175Z" style="fill: rgb(38, 50, 56); transform-origin: 265.62px 175.77px;" id="elpjq54j4mndj" class="animable"></path><path d="M281.39,172.49c.92,2.39.77,4.67-.34,5.1s-2.75-1.17-3.67-3.56-.77-4.68.34-5.11S280.47,170.09,281.39,172.49Z" style="fill: rgb(38, 50, 56); transform-origin: 279.385px 173.255px;" id="ellz4oxpwmdr" class="animable"></path><path d="M261.72,210.1s-17.67-1-14.13-17.66" style="fill: none; stroke: rgb(38, 50, 56); stroke-linecap: round; stroke-linejoin: round; transform-origin: 254.421px 201.27px;" id="elh3kt2jl31sq" class="animable"></path><line x1="252.64" y1="191.93" x2="243.55" y2="192.94" style="fill: none; stroke: rgb(38, 50, 56); stroke-linecap: round; stroke-linejoin: round; transform-origin: 248.095px 192.435px;" id="ela2c25u5yqus" class="animable"></line><path d="M216.88,191.75s0,3.11,4.44,5.33" style="fill: none; stroke: rgb(38, 50, 56); stroke-linecap: round; stroke-linejoin: round; transform-origin: 219.1px 194.415px;" id="el2m0l9emrvvn" class="animable"></path><path d="M218.21,198.85s3.55,3.11,6.66,3.11" style="fill: none; stroke: rgb(38, 50, 56); stroke-linecap: round; stroke-linejoin: round; transform-origin: 221.54px 200.405px;" id="elkjelkcz9tnc" class="animable"></path><path d="M257.82,168.26a5.88,5.88,0,0,1,6.18-5.09" style="fill: none; stroke: rgb(38, 50, 56); stroke-linecap: round; stroke-linejoin: round; transform-origin: 260.91px 165.71px;" id="elace43col4c" class="animable"></path><path d="M275.08,163.17s4.35-2.18,6.53,2.36" style="fill: none; stroke: rgb(38, 50, 56); stroke-linecap: round; stroke-linejoin: round; transform-origin: 278.345px 164.088px;" id="elnlv15xbecdb" class="animable"></path><path d="M275.89,179.09a12.5,12.5,0,0,0-4.74,6.42c-1.1,4.05.78,10.1,5.55,10.72a20.75,20.75,0,0,0,9.62-1.51,25.71,25.71,0,0,0,10.52-.44c5.71-1.44,5.35-4.53,5.35-4.53s1.64.59,7.3-1.24,6.33-6.22,6.33-6.22,1.2.25,5.7-1.45,8.76-2.19,8.87-4.55-13.58-2.34-16.63-1.59-5.84.28-9.71.73a18.4,18.4,0,0,0-6.43,1.92s-4.86-1.39-7.95-1a28.14,28.14,0,0,0-5,1S277.85,175.73,275.89,179.09Z" style="fill: #90CAF9; stroke: rgb(38, 50, 56); stroke-linecap: round; stroke-linejoin: round; transform-origin: 300.618px 185.275px;" id="elyzvx89w7kxq" class="animable"></path><path d="M284.69,177.28a5.39,5.39,0,0,0-2.25,4.76" style="fill: none; stroke: rgb(38, 50, 56); stroke-linecap: round; stroke-linejoin: round; transform-origin: 283.559px 179.66px;" id="el9y7g7yyakb" class="animable"></path><path d="M282.44,184.42a4.84,4.84,0,0,0,.87,3.26" style="fill: none; stroke: rgb(38, 50, 56); stroke-linecap: round; stroke-linejoin: round; transform-origin: 282.864px 186.05px;" id="ely7ounnnl0z" class="animable"></path><path d="M298.49,182a6.92,6.92,0,0,0,3.7,7.71" style="fill: none; stroke: rgb(38, 50, 56); stroke-linecap: round; stroke-linejoin: round; transform-origin: 300.258px 185.855px;" id="el6h07nlsi9k8" class="animable"></path><path d="M314.11,176.4s-.65.86.22,3" style="fill: none; stroke: rgb(38, 50, 56); stroke-linecap: round; stroke-linejoin: round; transform-origin: 314.103px 177.9px;" id="elsgjds0i8l" class="animable"></path></g><g id="freepik--Snow--inject-1--inject-92" class="animable" style="transform-origin: 248.801px 253.942px;"><path d="M132.81,332.86c-.55,1.38-3.07,1.67-5.64.65s-4.21-3-3.66-4.35,3.08-1.67,5.65-.65S133.36,331.48,132.81,332.86Z" style="fill: rgb(255, 255, 255); stroke: rgb(38, 50, 56); stroke-linecap: round; stroke-linejoin: round; transform-origin: 128.16px 331.014px;" id="elrt6x3i5zkyc" class="animable"></path><path d="M112.39,252.91c-.55,1.38-3.08,1.67-5.65.65s-4.2-3-3.65-4.35,3.08-1.67,5.64-.65S112.94,251.52,112.39,252.91Z" style="fill: rgb(255, 255, 255); stroke: rgb(38, 50, 56); stroke-linecap: round; stroke-linejoin: round; transform-origin: 107.74px 251.064px;" id="el9tfpvwyhprf" class="animable"></path><path d="M168.56,169c-.55,1.38-3.07,1.67-5.64.65s-4.2-3-3.65-4.35,3.07-1.67,5.64-.65S169.11,167.65,168.56,169Z" style="fill: rgb(255, 255, 255); stroke: rgb(38, 50, 56); stroke-linecap: round; stroke-linejoin: round; transform-origin: 163.915px 167.154px;" id="elbmmuht5603g" class="animable"></path><path d="M368.67,296.31c-.55,1.38-3.08,1.67-5.65.65s-4.2-3-3.65-4.35,3.08-1.67,5.64-.65S369.22,294.92,368.67,296.31Z" style="fill: rgb(255, 255, 255); stroke: rgb(38, 50, 56); stroke-linecap: round; stroke-linejoin: round; transform-origin: 364.02px 294.464px;" id="elqxg0lh1tyrs" class="animable"></path><path d="M402.19,139.86c-.55,1.38-3.08,1.67-5.65.65s-4.2-3-3.65-4.35,3.07-1.67,5.64-.65S402.73,138.48,402.19,139.86Z" style="fill: rgb(255, 255, 255); stroke: rgb(38, 50, 56); stroke-linecap: round; stroke-linejoin: round; transform-origin: 397.538px 138.014px;" id="elq2gv92zdi8b" class="animable"></path><path d="M230.89,217.51c-.55,1.38-3.07,1.67-5.64.65s-4.2-3-3.65-4.35,3.07-1.67,5.64-.65S231.44,216.13,230.89,217.51Z" style="fill: rgb(255, 255, 255); stroke: rgb(38, 50, 56); stroke-linecap: round; stroke-linejoin: round; transform-origin: 226.245px 215.664px;" id="elwbnix8l7hmr" class="animable"></path><path d="M407.11,378.34c-.55,1.38-3.07,1.67-5.64.65s-4.2-3-3.66-4.35,3.08-1.67,5.65-.65S407.66,377,407.11,378.34Z" style="fill: rgb(255, 255, 255); stroke: rgb(38, 50, 56); stroke-linecap: round; stroke-linejoin: round; transform-origin: 402.462px 376.494px;" id="elephglqvl1ju" class="animable"></path><ellipse cx="322.46" cy="406.42" rx="6.16" ry="5.77" style="fill: rgb(255, 255, 255); stroke: rgb(38, 50, 56); stroke-linecap: round; stroke-linejoin: round; transform-origin: 322.46px 406.42px;" id="elfxbz1xa90bo" class="animable"></ellipse><path d="M351.71,411.43a3.85,3.85,0,1,1-3.85-3.85A3.85,3.85,0,0,1,351.71,411.43Z" style="fill: rgb(255, 255, 255); stroke: rgb(38, 50, 56); stroke-linecap: round; stroke-linejoin: round; transform-origin: 347.86px 411.43px;" id="el4dl6k1p6s37" class="animable"></path><path d="M105.67,156.43c-.54,1.39-3.07,1.68-5.64.66s-4.2-3-3.65-4.35,3.07-1.68,5.64-.66S106.22,155.05,105.67,156.43Z" style="fill: rgb(255, 255, 255); stroke: rgb(38, 50, 56); stroke-linecap: round; stroke-linejoin: round; transform-origin: 101.025px 154.591px;" id="el5h38cjj7j2q" class="animable"></path><path d="M334.19,129.75c-.39,1-2.2,1.2-4,.47s-3-2.12-2.61-3.11,2.2-1.2,4-.47S334.58,128.76,334.19,129.75Z" style="fill: rgb(255, 255, 255); stroke: rgb(38, 50, 56); stroke-linecap: round; stroke-linejoin: round; transform-origin: 330.885px 128.431px;" id="elgjm3a9gc816" class="animable"></path><path d="M182.87,96.15c-.4,1-2.2,1.2-4,.47s-3-2.12-2.61-3.11,2.2-1.2,4-.47S183.26,95.16,182.87,96.15Z" style="fill: rgb(255, 255, 255); stroke: rgb(38, 50, 56); stroke-linecap: round; stroke-linejoin: round; transform-origin: 179.565px 94.8315px;" id="el4iw4lenzmz8" class="animable"></path><path d="M66.11,285.29c-.39,1-2.2,1.2-4,.47s-3-2.13-2.62-3.12,2.2-1.19,4-.47S66.51,284.3,66.11,285.29Z" style="fill: rgb(255, 255, 255); stroke: rgb(38, 50, 56); stroke-linecap: round; stroke-linejoin: round; transform-origin: 62.8029px 283.969px;" id="elmj7hcvbahej" class="animable"></path><path d="M438.11,293.9c-.4,1-2.2,1.2-4,.47s-3-2.12-2.62-3.11,2.2-1.2,4-.47S438.5,292.91,438.11,293.9Z" style="fill: rgb(255, 255, 255); stroke: rgb(38, 50, 56); stroke-linecap: round; stroke-linejoin: round; transform-origin: 434.801px 292.581px;" id="elm3s81jh0wej" class="animable"></path><path d="M284.7,103.29c-.39,1-2.2,1.2-4,.47s-3-2.13-2.62-3.12,2.2-1.2,4-.47S285.1,102.3,284.7,103.29Z" style="fill: rgb(255, 255, 255); stroke: rgb(38, 50, 56); stroke-linecap: round; stroke-linejoin: round; transform-origin: 281.393px 101.966px;" id="elooouc61e1gr" class="animable"></path><path d="M132.64,344.26c-.39,1-2.2,1.2-4,.47s-3-2.12-2.62-3.11,2.2-1.2,4-.47S133,343.27,132.64,344.26Z" style="fill: rgb(255, 255, 255); stroke: rgb(38, 50, 56); stroke-linecap: round; stroke-linejoin: round; transform-origin: 129.327px 342.941px;" id="eli0saadb4t4h" class="animable"></path><path d="M352.72,353.49c-.39,1-2.2,1.2-4,.47s-3-2.12-2.62-3.11,2.2-1.2,4-.47S353.12,352.5,352.72,353.49Z" style="fill: rgb(255, 255, 255); stroke: rgb(38, 50, 56); stroke-linecap: round; stroke-linejoin: round; transform-origin: 349.413px 352.171px;" id="el4kht9brmnh7" class="animable"></path><path d="M262.44,343.71c-.39,1-2.2,1.2-4,.47s-3-2.13-2.62-3.11,2.2-1.2,4-.47S262.84,342.72,262.44,343.71Z" style="fill: rgb(255, 255, 255); stroke: rgb(38, 50, 56); stroke-linecap: round; stroke-linejoin: round; transform-origin: 259.133px 342.393px;" id="el2a25hj3cyh6" class="animable"></path></g><defs>     <filter id="active" height="200%">         <feMorphology in="SourceAlpha" result="DILATED" operator="dilate" radius="2"></feMorphology>                <feFlood flood-color="#32DFEC" flood-opacity="1" result="PINK"></feFlood>        <feComposite in="PINK" in2="DILATED" operator="in" result="OUTLINE"></feComposite>        <feMerge>            <feMergeNode in="OUTLINE"></feMergeNode>            <feMergeNode in="SourceGraphic"></feMergeNode>        </feMerge>    </filter>    <filter id="hover" height="200%">        <feMorphology in="SourceAlpha" result="DILATED" operator="dilate" radius="2"></feMorphology>                <feFlood flood-color="#ff0000" flood-opacity="0.5" result="PINK"></feFlood>        <feComposite in="PINK" in2="DILATED" operator="in" result="OUTLINE"></feComposite>        <feMerge>            <feMergeNode in="OUTLINE"></feMergeNode>            <feMergeNode in="SourceGraphic"></feMergeNode>        </feMerge>            <feColorMatrix type="matrix" values="0   0   0   0   0                0   1   0   0   0                0   0   0   0   0                0   0   0   1   0 "></feColorMatrix>    </filter></defs><defs><clipPath id="freepik--clip-path--inject-1--inject-92"><path d="M287.39,384.52c14.61,2.93,20.46,10.23,20.46,10.23a9.13,9.13,0,0,1,1.23-.59c25.86-15.9,43-43.54,43-75,0-49.32-42.07-89.29-94-89.29s-94,40-94,89.29c0,38.22,25.28,70.82,60.81,83.56l2.3.1a31.67,31.67,0,0,0,11.17-5.89C253.05,385.25,272.78,381.6,287.39,384.52Z" style="fill:#fff;stroke:#263238;stroke-linecap:round;stroke-linejoin:round"></path></clipPath><clipPath id="freepik--clip-path-2--inject-1--inject-92"><path d="M299.87,192.65a44.44,44.44,0,0,1-44.44,44.43c-24.53,0-43.17-15.06-43.17-39.6s23.91-41.89,48.45-41.89S299.87,168.11,299.87,192.65Z" style="fill:#fff;stroke:#263238;stroke-linecap:round;stroke-linejoin:round"></path></clipPath></defs></svg>